<?xml version="1.0" encoding="utf-8"?>
<!-- Generator: Adobe Illustrator 24.1.2, SVG Export Plug-In . SVG Version: 6.00 Build 0)  -->
<svg version="1.1" id="Layer_1" xmlns="http://www.w3.org/2000/svg" xmlns:xlink="http://www.w3.org/1999/xlink" x="0px" y="0px"
	 viewBox="0 0 433.3 62.6" style="enable-background:new 0 0 433.3 62.6;" xml:space="preserve">
<path d="M0.8,1.1v60.5h43.8V50.4H12V36.9h32.6V25.7H12V12.3h32.6V1.1L0.8,1.1z"/>
<path d="M84,30.2c-3.2-2.3-6.9-3.4-9.9-4.3l-1.3-0.4c-0.6-0.1-1.1-0.3-1.5-0.4L71.1,25c-1.9-0.6-4.9-1.6-7-3.2
	c-1.8-1.3-2.6-2.7-2.6-4.6c0-2.9,3.7-5.5,8-5.5c4.2,0,7.9,2.6,7.9,5.5v0.7h11.2v-0.7c0-2.3-0.6-4.7-1.7-6.8c-1-2-2.5-3.7-4.4-5.3
	c-3.6-2.9-8.3-4.5-13.1-4.5c-4.9,0-9.6,1.6-13.2,4.5c-1.9,1.6-3.3,3.3-4.4,5.3c-1.1,2.2-1.7,4.5-1.7,6.8c0,5.5,2.5,10.3,7.2,13.7
	c3.2,2.3,6.8,3.6,10.3,4.8l2.7,0.8c6.9,1.9,9.4,3.4,9.4,7.6c0,2-0.6,3.5-2.1,4.6C76,50,73.3,50.8,70,50.8c-5,0-9.5-2.4-11-5.9
	l-0.3-0.7l-10.3,4.4l0.3,0.7c1.5,3.7,4.4,7,8.4,9.4c3.8,2.2,8.2,3.4,12.8,3.4c5.9,0,10.9-1.5,14.6-4.4c2.1-1.7,3.7-3.7,4.8-5.8
	c1-2.3,1.6-4.8,1.6-7.6c0-3.1-0.7-6.1-2-8.4C87.9,33.6,86.2,31.7,84,30.2"/>
<path d="M124.8,0.6c-17,0-30.8,13.8-30.8,30.8c0,16.9,13.8,30.7,30.8,30.7c16.9,0,30.7-13.8,30.7-30.7
	C155.5,14.4,141.8,0.6,124.8,0.6 M124.8,50.8c-10.8,0-19.5-8.7-19.5-19.5s8.8-19.5,19.5-19.5s19.5,8.8,19.5,19.5
	C144.3,42.1,135.6,50.8,124.8,50.8"/>
<path d="M153.1,12.3h18.3v49.3h11.3V12.3h18.4V1.1h-48V12.3z"/>
<path d="M207.1,61.6h43.7V50.4h-32.5V36.9h32.5V25.7h-32.5V12.3h32.5V1.1h-43.7V61.6z"/>
<path d="M305.8,19c0-9.9-8-17.9-17.9-17.9h-30v60.5h11.2V36.9h4.5l16.5,24.3l0.2,0.3h12.9l-16.4-24.6h2.4
	C299.1,36.9,305.8,28.9,305.8,19 M269,12.3h18.8c3.7,0,6.7,3,6.7,6.7s-3,6.7-6.7,6.7H269V12.3z"/>
<path d="M309.9,1.1h11.2v60.5h-11.2V1.1z"/>
<path d="M386.6,39l-10.8-3l-0.2,0.7c-2.3,8.3-10,14.2-18.7,14.2c-10.7,0-19.5-8.7-19.5-19.5s8.7-19.5,19.5-19.5
	c8.7,0,16.4,5.8,18.7,14.2l0.2,0.7l10.8-3l-0.2-0.7c-3.7-13.3-15.9-22.5-29.6-22.5c-16.9,0-30.7,13.8-30.7,30.8
	c0,16.9,13.8,30.7,30.7,30.7c13.7,0,25.9-9.2,29.5-22.4L386.6,39z"/>
<path d="M414.3,1.1h-11l-18.1,60.5h11.5l4.4-14.9h15.5l4.5,14.9h11.4L414.3,1.1z M413.8,36.5h-10.2l5.1-19L413.8,36.5z"/>
</svg>
