<?xml version="1.0" encoding="UTF-8"?>
<svg width="28px" height="36px" viewBox="0 0 28 36" version="1.1" xmlns="http://www.w3.org/2000/svg" xmlns:xlink="http://www.w3.org/1999/xlink">
    <title>3</title>
    <g id="Page-1" stroke="none" stroke-width="1" fill="none" fill-rule="evenodd">
        <g id="20200618_Esoterica_5G-Opportunity_002" transform="translate(-56.000000, -1574.000000)" fill="#0E1726" fill-rule="nonzero">
            <g id="Group-16" transform="translate(56.000000, 1006.000000)">
                <g id="Group-15">
                    <g id="Group-12" transform="translate(0.000000, 527.000000)">
                        <path d="M8.92666667,76.3866667 C15.3106667,76.3866667 18.8146667,73.2666667 18.8146667,66.7866667 C18.8146667,61.7946667 17.1346667,59.0106667 11.9026667,58.2906667 L11.9026667,58.1946667 C13.8226667,57.7146667 18.4786667,56.7546667 18.4786667,50.4666667 C18.4786667,44.6586667 15.1186667,41.8266667 9.45466667,41.8266667 C3.26266667,41.8266667 0.526666667,45.2826667 0.862666667,50.9466667 L5.27866667,50.9466667 C5.23066667,48.2586667 5.80666667,45.5226667 9.45466667,45.5226667 C12.7186667,45.5226667 14.0626667,47.7306667 14.0626667,50.7546667 C14.0626667,55.0266667 11.2306667,56.6106667 7.24666667,56.2746667 L7.24666667,60.1626667 C12.3826667,60.1626667 14.3986667,61.3146667 14.3986667,66.6906667 C14.3986667,70.2426667 13.1986667,72.6906667 9.31066667,72.6906667 C5.32666667,72.6906667 4.79866667,69.8106667 4.75066667,66.4986667 L0.334666667,66.4986667 C0.334666667,68.3706667 -0.385333333,76.3866667 8.92666667,76.3866667 Z M27.412,75.6666667 L27.412,70.6746667 L22.9,70.6746667 L22.9,75.6666667 L27.412,75.6666667 Z" id="3."></path>
                    </g>
                </g>
            </g>
        </g>
    </g>
</svg>