<?xml version="1.0" encoding="utf-8"?>
<!-- Generator: Adobe Illustrator 24.1.2, SVG Export Plug-In . SVG Version: 6.00 Build 0)  -->
<svg version="1.1" id="Layer_1" xmlns="http://www.w3.org/2000/svg" xmlns:xlink="http://www.w3.org/1999/xlink" x="0px" y="0px"
	 viewBox="0 0 432 61.5" style="enable-background:new 0 0 432 61.5;" xml:space="preserve">
<style type="text/css">
	.st0{fill:#FFFFFF;}
</style>
<g>
	<path class="st0" d="M0.2,0.5V61H44V49.8H11.4V36.3H44V25.1H11.4V11.7H44V0.5L0.2,0.5z"/>
	<path class="st0" d="M83.4,29.6c-3.2-2.3-6.9-3.4-9.9-4.3l-1.3-0.4c-0.6-0.1-1.1-0.3-1.5-0.4l-0.2-0.1c-1.9-0.6-4.9-1.6-7-3.2
		c-1.8-1.3-2.6-2.7-2.6-4.6c0-2.9,3.7-5.5,8-5.5c4.2,0,7.9,2.6,7.9,5.5v0.7H88v-0.7c0-2.3-0.6-4.7-1.7-6.8c-1-2-2.5-3.7-4.4-5.3
		C78.3,1.6,73.6,0,68.8,0c-4.9,0-9.6,1.6-13.2,4.5c-1.9,1.6-3.3,3.3-4.4,5.3c-1.1,2.2-1.7,4.5-1.7,6.8c0,5.5,2.5,10.3,7.2,13.7
		c3.2,2.3,6.8,3.6,10.3,4.8l2.7,0.8c6.9,1.9,9.4,3.4,9.4,7.6c0,2-0.6,3.5-2.1,4.6c-1.6,1.3-4.3,2.1-7.6,2.1c-5,0-9.5-2.4-11-5.9
		l-0.3-0.7L47.8,48l0.3,0.7c1.5,3.7,4.4,7,8.4,9.4c3.8,2.2,8.2,3.4,12.8,3.4c5.9,0,10.9-1.5,14.6-4.4c2.1-1.7,3.7-3.7,4.8-5.8
		c1-2.3,1.6-4.8,1.6-7.6c0-3.1-0.7-6.1-2-8.4C87.3,33,85.6,31.1,83.4,29.6"/>
	<path class="st0" d="M124.2,0c-17,0-30.8,13.8-30.8,30.8c0,16.9,13.8,30.7,30.8,30.7c16.9,0,30.7-13.8,30.7-30.7
		C154.9,13.8,141.2,0,124.2,0 M124.2,50.2c-10.8,0-19.5-8.7-19.5-19.5s8.8-19.5,19.5-19.5s19.5,8.8,19.5,19.5
		C143.7,41.5,135,50.2,124.2,50.2"/>
	<path class="st0" d="M152.5,11.7h18.3V61h11.3V11.7h18.4V0.5h-48V11.7z"/>
	<path class="st0" d="M206.5,61h43.7V49.8h-32.5V36.3h32.5V25.1h-32.5V11.7h32.5V0.5h-43.7V61z"/>
	<path class="st0" d="M305.2,18.4c0-9.9-8-17.9-17.9-17.9h-30V61h11.2V36.3h4.5l16.5,24.3l0.2,0.3h12.9l-16.4-24.6h2.4
		C298.5,36.3,305.2,28.3,305.2,18.4 M268.4,11.7h18.8c3.7,0,6.7,3,6.7,6.7s-3,6.7-6.7,6.7h-18.8V11.7z"/>
	<path class="st0" d="M309.3,0.5h11.2V61h-11.2V0.5z"/>
	<path class="st0" d="M386,38.4l-10.8-3l-0.2,0.7c-2.3,8.3-10,14.2-18.7,14.2c-10.7,0-19.5-8.7-19.5-19.5s8.7-19.5,19.5-19.5
		c8.7,0,16.4,5.8,18.7,14.2l0.2,0.7l10.8-3l-0.2-0.7C382.1,9.2,369.9,0,356.2,0c-16.9,0-30.7,13.8-30.7,30.8
		c0,16.9,13.8,30.7,30.7,30.7c13.7,0,25.9-9.2,29.5-22.4L386,38.4z"/>
	<path class="st0" d="M413.7,0.5h-11L384.6,61h11.5l4.4-14.9H416l4.5,14.9h11.4L413.7,0.5z M413.2,35.9H403l5.1-19L413.2,35.9z"/>
</g>
</svg>
