<?xml version="1.0" encoding="UTF-8"?>
<svg width="24px" height="43px" viewBox="0 0 24 43" version="1.1" xmlns="http://www.w3.org/2000/svg" xmlns:xlink="http://www.w3.org/1999/xlink">
    <!-- Generator: Sketch 64 (93537) - https://sketch.com -->
    <title>$</title>
    <desc>Created with Sketch.</desc>
    <g id="---↳-Final-–-SJ" stroke="none" stroke-width="1" fill="none" fill-rule="evenodd">
        <g id="1.0-Home" transform="translate(-162.000000, -215.000000)" fill="#000000" fill-rule="nonzero">
            <path d="M174.973671,257.420229 L174.973671,252.983417 C177.733338,252.678482 179.845017,252.053364 181.308707,251.108064 C183.9464,249.400424 185.265246,246.518784 185.265246,242.463141 C185.265246,239.657734 184.236089,237.538432 182.177774,236.105235 C180.912291,235.236168 178.510924,234.306115 174.973671,233.315074 L174.973671,233.315074 L174.973671,222.200174 C177.077727,222.276408 178.610028,223.084487 179.570575,224.624411 C180.088965,225.462984 180.401524,226.461648 180.508252,227.620403 L180.508252,227.620403 L184.510531,227.620403 C184.434297,225.028451 183.584289,222.943454 181.960507,221.365413 C180.336725,219.787371 178.00778,218.891623 174.973671,218.678168 L174.973671,218.678168 L174.973671,215.682176 L172.801006,215.682176 L172.801006,218.723908 C169.736403,218.754402 167.354094,219.699702 165.654079,221.559809 C163.954063,223.419916 163.104055,225.508724 163.104055,227.826235 C163.104055,230.418187 163.889264,232.446008 165.459682,233.909699 C167.0301,235.373389 169.461961,236.417794 172.755265,237.042911 L172.755265,237.042911 L172.755265,249.507152 C170.193807,249.293697 168.440427,248.325527 167.495127,246.602641 C166.96149,245.642094 166.633684,244.117416 166.51171,242.028608 L166.51171,242.028608 L162.463691,242.028608 C162.463691,244.651053 162.898224,246.732238 163.76729,248.272163 C165.352955,251.12331 168.364193,252.693728 172.801006,252.983417 L172.801006,252.983417 L172.801006,257.420229 L174.973671,257.420229 Z M172.755265,232.880541 C171.062873,232.545112 169.717345,231.950488 168.718681,231.096668 C167.720017,230.242849 167.220685,229.061223 167.220685,227.551793 C167.220685,226.301557 167.643783,225.104685 168.489979,223.961176 C169.336176,222.817668 170.757937,222.207797 172.755265,222.131563 L172.755265,222.131563 L172.755265,232.880541 Z M174.973671,249.621503 L174.973671,237.591795 C176.879519,238.110186 178.236482,238.65907 179.044561,239.238447 C180.447265,240.229488 181.148616,241.677932 181.148616,243.583779 C181.148616,244.788274 180.889421,245.847925 180.371031,246.762732 C179.37999,248.546605 177.58087,249.499529 174.973671,249.621503 L174.973671,249.621503 Z" id="$"></path>
        </g>
    </g>
</svg>