<?xml version="1.0" encoding="UTF-8"?>
<svg width="27px" height="47px" viewBox="0 0 27 47" version="1.1" xmlns="http://www.w3.org/2000/svg" xmlns:xlink="http://www.w3.org/1999/xlink">
    <!-- Generator: Sketch 64 (93537) - https://sketch.com -->
    <title>฿</title>
    <desc>Created with Sketch.</desc>
    <g id="---↳-Final-–-SJ" stroke="none" stroke-width="1" fill="none" fill-rule="evenodd">
        <g id="1.0-Home" transform="translate(-1334.000000, -325.000000)" fill="#000000" fill-rule="nonzero">
            <path d="M1348.08401,371.51171 L1348.08401,366 L1348.65577,366 C1353.07733,366 1356.30203,364.688777 1358.32985,362.066331 C1359.68681,360.312952 1360.36529,358.353741 1360.36529,356.188699 C1360.36529,353.611993 1359.61058,351.591795 1358.10115,350.128105 C1357.24733,349.304779 1355.95897,348.56531 1354.23609,347.909699 C1355.41009,347.315074 1356.30965,346.659463 1356.93477,345.942864 C1358.13926,344.585901 1358.74151,342.847769 1358.74151,340.728467 C1358.74151,338.9141 1358.25361,337.313188 1357.27782,335.925732 C1355.61592,333.577728 1352.81814,332.403726 1348.88447,332.403726 L1348.88447,332.403726 L1348.08401,332.403726 L1348.08401,325.862859 L1344.21896,325.862859 L1344.21896,332.403726 L1334.4534,332.403726 L1334.4534,366 L1344.21896,366 L1344.21896,371.51171 L1348.08401,371.51171 Z M1344.21896,346.606099 L1338.91308,346.606099 L1338.91308,336.200174 L1344.21896,336.200174 L1344.21896,346.606099 Z M1348.08401,346.583229 L1348.08401,336.223044 C1349.5477,336.284031 1350.69121,336.489862 1351.51454,336.840538 C1353.29841,337.602877 1354.19035,339.081815 1354.19035,341.277351 C1354.19035,343.45764 1353.35178,344.967071 1351.67463,345.805643 C1350.77507,346.263047 1349.5782,346.522242 1348.08401,346.583229 L1348.08401,346.583229 Z M1348.72438,362.112072 L1348.08401,362.112072 L1348.08401,350.288196 C1349.92887,350.303443 1351.41543,350.539768 1352.5437,350.997171 C1354.72399,351.881484 1355.81413,353.543383 1355.81413,355.982867 C1355.81413,357.431311 1355.44058,358.6663 1354.69349,359.687834 C1353.50424,361.303993 1351.51454,362.112072 1348.72438,362.112072 L1348.72438,362.112072 Z M1344.21896,362.112072 L1338.91308,362.112072 L1338.91308,350.288196 L1344.21896,350.288196 L1344.21896,362.112072 Z" id="฿"></path>
        </g>
    </g>
</svg>