<?xml version="1.0" encoding="UTF-8"?>
<svg width="31px" height="36px" viewBox="0 0 31 36" version="1.1" xmlns="http://www.w3.org/2000/svg" xmlns:xlink="http://www.w3.org/1999/xlink">
    <!-- Generator: Sketch 64 (93537) - https://sketch.com -->
    <title>€</title>
    <desc>Created with Sketch.</desc>
    <g id="---↳-Final-–-SJ" stroke="none" stroke-width="1" fill="none" fill-rule="evenodd">
        <g id="1.0-Home" transform="translate(-255.000000, -432.000000)" fill="#000000" fill-rule="nonzero">
            <path d="M273.262967,467.869066 C277.059415,467.869066 280.078277,466.428246 282.319553,463.546605 C284.194906,461.152861 285.300298,458.187363 285.635727,454.65011 L285.635727,454.65011 L281.90789,454.65011 C281.52672,456.860893 280.947343,458.644766 280.169757,460.001729 C278.69082,462.578435 276.541024,463.866787 273.72037,463.866787 C270.655768,463.866787 268.353505,462.647045 266.81358,460.207561 C265.883527,458.74387 265.235539,457.013361 264.869616,455.016033 L264.869616,455.016033 L276.830713,455.016033 L277.79126,451.768469 L264.526564,451.768469 C264.511317,451.402547 264.503694,451.021377 264.503694,450.624961 C264.503694,449.755895 264.526564,448.932569 264.572304,448.154983 L264.572304,448.154983 L276.830713,448.154983 L277.79126,444.90742 L265.029707,444.90742 C265.44137,442.879598 266.119852,441.225323 267.065152,439.944594 C268.772791,437.611837 271.021691,436.445458 273.811851,436.445458 C276.083621,436.445458 277.852247,437.078199 279.11773,438.343682 C280.383212,439.609165 281.221785,441.324427 281.633448,443.489469 L281.633448,443.489469 L285.361285,443.489469 C285.14783,440.638322 284.053874,438.09211 282.079416,435.850834 C280.104958,433.609558 277.333857,432.488919 273.766111,432.488919 C269.573247,432.488919 266.287566,434.211805 263.909069,437.657577 C262.491119,439.700645 261.522949,442.117259 261.004558,444.90742 L261.004558,444.90742 L256.156083,444.90742 L255.195536,448.154983 L260.638635,448.154983 C260.608142,448.719114 260.592895,449.283245 260.592895,449.847375 C260.592895,450.502987 260.608142,451.143352 260.638635,451.768469 L260.638635,451.768469 L256.156083,451.768469 L255.195536,455.016033 L260.958818,455.016033 C261.553442,458.995442 262.902782,462.098161 265.006837,464.324191 C267.232867,466.687441 269.98491,467.869066 273.262967,467.869066 Z" id="€"></path>
        </g>
    </g>
</svg>