<?xml version="1.0" encoding="UTF-8"?>
<svg width="24px" height="35px" viewBox="0 0 24 35" version="1.1" xmlns="http://www.w3.org/2000/svg" xmlns:xlink="http://www.w3.org/1999/xlink">
    <!-- Generator: Sketch 64 (93537) - https://sketch.com -->
    <title>£</title>
    <desc>Created with Sketch.</desc>
    <g id="---↳-Final-–-SJ" stroke="none" stroke-width="1" fill="none" fill-rule="evenodd">
        <g id="1.0-Home" transform="translate(-1107.000000, -449.000000)" fill="#000000" fill-rule="nonzero">
            <path d="M1125.14233,483.823326 C1126.39256,483.823326 1127.57419,483.556507 1128.6872,483.02287 C1129.35806,482.687441 1130.1204,482.176674 1130.97422,481.490569 L1130.97422,481.490569 L1129.076,478.403097 C1128.32891,478.936734 1127.7724,479.28741 1127.40648,479.455124 C1126.81185,479.729566 1126.15624,479.866787 1125.43964,479.866787 C1124.87551,479.866787 1123.69007,479.596157 1121.88333,479.054896 C1120.07659,478.513636 1118.62433,478.243005 1117.52656,478.243005 C1116.55077,478.243005 1115.55211,478.399285 1114.53057,478.711844 C1113.50904,479.024403 1112.47226,479.447501 1111.42023,479.981138 C1113.37182,478.517447 1114.80501,477.042322 1115.71982,475.555761 C1116.63463,474.0692 1117.09203,472.563581 1117.09203,471.038903 C1117.09203,470.611993 1117.05773,470.20033 1116.98911,469.803914 C1116.9205,469.407498 1116.80997,468.858614 1116.6575,468.157262 L1116.6575,468.157262 L1123.12975,468.157262 L1123.12975,465.778765 L1115.62834,465.778765 C1114.51533,463.628969 1113.78729,462.134785 1113.44424,461.296212 C1113.10119,460.45764 1112.92966,459.641937 1112.92966,458.849105 C1112.92966,457.248193 1113.47854,455.887418 1114.57631,454.76678 C1115.67408,453.646142 1117.29024,453.085823 1119.42479,453.085823 C1121.62032,453.085823 1123.25554,453.684259 1124.33044,454.881131 C1125.40534,456.078003 1125.94278,457.827571 1125.94278,460.129834 L1125.94278,460.129834 L1130.17377,460.129834 C1130.12803,456.729803 1129.23228,454.099734 1127.48652,452.239627 C1125.74076,450.37952 1123.16787,449.449466 1119.76784,449.449466 C1116.15435,449.449466 1113.37944,450.390955 1111.4431,452.273932 C1109.50676,454.156909 1108.53859,456.287646 1108.53859,458.666143 C1108.53859,459.337002 1108.59195,459.965931 1108.69868,460.552932 C1108.80541,461.139933 1108.935,461.654512 1109.08747,462.096668 C1109.25519,462.569318 1109.59443,463.320222 1110.10519,464.34938 C1110.52019,465.18557 1110.7666,465.656895 1110.84441,465.763354 L1110.857,465.779 L1107.28073,465.778765 L1107.28073,468.157262 L1112.33504,468.157262 C1112.62472,468.873861 1112.83056,469.437992 1112.95253,469.849655 C1113.15074,470.505266 1113.24984,471.07702 1113.24984,471.564917 C1113.24984,473.272556 1112.72383,474.854409 1111.6718,476.310476 C1110.61977,477.766544 1109.23232,479.096825 1107.50943,480.30132 L1107.50943,480.30132 L1109.77358,483.548884 C1110.73412,482.969506 1111.51933,482.557843 1112.1292,482.313895 C1113.16599,481.917479 1114.26375,481.719271 1115.42251,481.719271 C1116.67274,481.719271 1118.37657,482.069947 1120.53399,482.771298 C1122.69141,483.47265 1124.22752,483.823326 1125.14233,483.823326 Z" id="£"></path>
        </g>
    </g>
</svg>