<?xml version="1.0" encoding="UTF-8"?>
<svg width="22px" height="36px" viewBox="0 0 22 36" version="1.1" xmlns="http://www.w3.org/2000/svg" xmlns:xlink="http://www.w3.org/1999/xlink">
    <!-- Generator: Sketch 64 (93537) - https://sketch.com -->
    <title>¢</title>
    <desc>Created with Sketch.</desc>
    <g id="---↳-Final-–-SJ" stroke="none" stroke-width="1" fill="none" fill-rule="evenodd">
        <g id="1.0-Home" transform="translate(-312.000000, -608.000000)" fill="#000000" fill-rule="nonzero">
            <path d="M319.193807,643.420229 L320.611757,638.663235 C321.02342,638.769962 321.404589,638.850008 321.755265,638.903372 C322.105941,638.956735 322.563345,638.983417 323.127475,638.983417 C326.832442,638.983417 329.668343,637.687441 331.635177,635.095489 C332.748192,633.601305 333.541024,631.718328 334.013674,629.446558 L334.013674,629.446558 L330.057136,629.446558 C329.569239,631.154197 328.989861,632.427303 328.319003,633.265876 C327.175495,634.699073 325.56696,635.415671 323.493398,635.415671 C323.035995,635.415671 322.685319,635.392801 322.44137,635.347061 C322.197422,635.30132 321.930603,635.23271 321.640915,635.141229 L321.640915,635.141229 L326.740962,617.188149 C327.762496,617.569318 328.540081,618.232553 329.073718,619.177853 C329.531122,620.062166 329.836057,620.954103 329.988525,621.853663 L329.988525,621.853663 L333.830713,621.853663 C333.647752,619.825841 333.045504,618.106767 332.02397,616.69644 C331.002436,615.286113 329.584485,614.207404 327.770119,613.460312 L327.770119,613.460312 L329.027978,608.840538 L327.129754,608.840538 L325.917636,613.025779 C325.56696,612.949545 325.216284,612.892369 324.865608,612.854252 C324.514932,612.816136 324.179503,612.797077 323.859321,612.797077 C320.245834,612.797077 317.428992,614.035878 315.408794,616.513479 C313.388596,618.99108 312.378497,622.181469 312.378497,626.084644 C312.378497,628.737583 312.866394,631.135139 313.842188,633.277311 C314.817982,635.419483 316.47988,637.03183 318.827884,638.114351 L318.827884,638.114351 L317.249843,643.420229 L319.193807,643.420229 Z M319.902782,634.386514 C318.957482,633.700409 318.240883,632.854213 317.752986,631.847925 C316.944907,630.353741 316.540867,628.4174 316.540867,626.038903 C316.540867,623.142015 317.200291,620.816882 318.519137,619.063503 C319.837983,617.310123 321.457953,616.433433 323.379047,616.433433 C323.760217,616.433433 324.072775,616.456304 324.316724,616.502044 C324.560672,616.547784 324.774127,616.601148 324.957089,616.662135 L324.957089,616.662135 L319.902782,634.386514 Z" id="¢"></path>
        </g>
    </g>
</svg>