<?xml version="1.0" encoding="UTF-8"?>
<svg width="44px" height="44px" viewBox="0 0 44 44" version="1.1" xmlns="http://www.w3.org/2000/svg" xmlns:xlink="http://www.w3.org/1999/xlink">
    <!-- Generator: Sketch 64 (93537) - https://sketch.com -->
    <title>☀</title>
    <desc>Created with Sketch.</desc>
    <g id="---↳-Final-–-SJ" stroke="none" stroke-width="1" fill="none" fill-rule="evenodd">
        <g id="1.0-Home" transform="translate(-747.000000, -173.000000)" fill="#000000" fill-rule="nonzero">
            <path d="M770.027945,182.461559 L770.027945,173.749672 L768.856993,173.749672 L768.856993,182.461559 L770.027945,182.461559 Z M760.004592,186.583312 L760.847678,185.740226 L754.665049,179.604435 L753.868801,180.44752 L760.004592,186.583312 Z M778.880346,186.63015 L785.016137,180.44752 L784.173052,179.651273 L778.03726,185.787064 L778.880346,186.63015 Z M769.41905,204.943847 C774.805432,204.943847 779.161375,200.587903 779.161375,195.201522 C779.161375,189.81514 774.805432,185.459197 769.41905,185.459197 C764.032668,185.459197 759.676725,189.81514 759.676725,195.201522 C759.676725,200.587903 764.032668,204.943847 769.41905,204.943847 Z M756.679087,195.763579 L756.679087,194.592627 L747.9672,194.592627 L747.9672,195.763579 L756.679087,195.763579 Z M790.8709,195.810417 L790.8709,194.639465 L782.159013,194.639465 L782.159013,195.810417 L790.8709,195.810417 Z M754.665049,210.751771 L760.80084,204.61598 L759.957754,203.772894 L753.821963,209.955523 L754.665049,210.751771 Z M784.173052,210.798609 L784.969299,209.955523 L778.833508,203.819732 L777.990422,204.662818 L784.173052,210.798609 Z M769.981107,216.653372 L769.981107,207.941485 L768.810155,207.941485 L768.810155,216.653372 L769.981107,216.653372 Z" id="☀"></path>
        </g>
    </g>
</svg>