<?xml version="1.0" encoding="UTF-8"?>
<svg width="18px" height="17px" viewBox="0 0 18 17" version="1.1" xmlns="http://www.w3.org/2000/svg" xmlns:xlink="http://www.w3.org/1999/xlink">
    <!-- Generator: Sketch 64 (93537) - https://sketch.com -->
    <title>Fill 3</title>
    <desc>Created with Sketch.</desc>
    <g id="---↳-Final-–-SJ" stroke="none" stroke-width="1" fill="none" fill-rule="evenodd">
        <g id="2.0-Resources-Library" transform="translate(-1316.000000, -32.000000)" fill="#FFFFFF">
            <g id="Group-42" transform="translate(0.000000, 24.000000)">
                <g id="Group-41" transform="translate(1277.000000, 8.192020)">
                    <path d="M56.3333333,16 L52.6896393,16 L52.6896393,10.2238111 C52.6896393,8.77315469 52.1624167,7.78297834 50.8433839,7.78297834 C49.8367792,7.78297834 49.2377958,8.45062637 48.9736963,9.095683 C48.877527,9.3264037 48.8540949,9.64845135 48.8540949,9.97097966 L48.8540949,16 L45.2094245,16 C45.2094245,16 45.2572651,6.21648091 45.2094245,5.2046745 L48.8540949,5.2046745 L48.8540949,6.73271848 C49.3383586,5.99729624 50.2038824,4.94992039 52.1384964,4.94992039 C54.5358948,4.94992039 56.3333333,6.49334575 56.3333333,9.80995584 L56.3333333,16 Z M41.3709511,3.73046535 L41.3465426,3.73046535 C40.1241672,3.73046535 39.3333333,2.90131282 39.3333333,1.86499234 C39.3333333,0.80656112 40.1490639,0 41.3943832,0 C42.641167,0 43.4085688,0.80656112 43.4329773,1.86499234 C43.4329773,2.90131282 42.641167,3.73046535 41.3709511,3.73046535 L41.3709511,3.73046535 Z M39.5481277,16 L43.1927981,16 L43.1927981,5.2046745 L39.5481277,5.2046745 L39.5481277,16 Z" id="Fill-3"></path>
                </g>
            </g>
        </g>
    </g>
</svg>