<?xml version="1.0" encoding="UTF-8"?>
<svg width="18px" height="16px" viewBox="0 0 18 16" version="1.1" xmlns="http://www.w3.org/2000/svg" xmlns:xlink="http://www.w3.org/1999/xlink">
    <!-- Generator: Sketch 64 (93537) - https://sketch.com -->
    <title>LinkedIn</title>
    <desc>Created with Sketch.</desc>
    <g id="---↳-Final-–-SJ" stroke="none" stroke-width="1" fill="none" fill-rule="evenodd">
        <g id="1.0-Home" transform="translate(-1316.000000, -32.000000)" fill="#000000">
            <g id="Group-38">
                <g id="Group-42" transform="translate(0.000000, 23.807980)">
                    <path d="M1333.33333,24.1920198 L1329.68964,24.1920198 L1329.68964,18.4158309 C1329.68964,16.9651745 1329.16242,15.9749981 1327.84338,15.9749981 C1326.83678,15.9749981 1326.2378,16.6426462 1325.9737,17.2877028 C1325.87753,17.5184235 1325.85409,17.8404711 1325.85409,18.1629994 L1325.85409,24.1920198 L1322.20942,24.1920198 C1322.20942,24.1920198 1322.25727,14.4085007 1322.20942,13.3966943 L1325.85409,13.3966943 L1325.85409,14.9247383 C1326.33836,14.189316 1327.20388,13.1419402 1329.1385,13.1419402 C1331.53589,13.1419402 1333.33333,14.6853655 1333.33333,18.0019756 L1333.33333,24.1920198 Z M1318.37095,11.9224851 L1318.34654,11.9224851 C1317.12417,11.9224851 1316.33333,11.0933326 1316.33333,10.0570121 C1316.33333,8.9985809 1317.14906,8.19201978 1318.39438,8.19201978 C1319.64117,8.19201978 1320.40857,8.9985809 1320.43298,10.0570121 C1320.43298,11.0933326 1319.64117,11.9224851 1318.37095,11.9224851 L1318.37095,11.9224851 Z M1316.54813,24.1920198 L1320.1928,24.1920198 L1320.1928,13.3966943 L1316.54813,13.3966943 L1316.54813,24.1920198 Z" id="LinkedIn"></path>
                </g>
            </g>
        </g>
    </g>
</svg>