<?xml version="1.0" encoding="UTF-8"?>
<svg width="16px" height="13px" viewBox="0 0 16 13" version="1.1" xmlns="http://www.w3.org/2000/svg" xmlns:xlink="http://www.w3.org/1999/xlink">
    <!-- Generator: Sketch 64 (93537) - https://sketch.com -->
    <title>Twitter</title>
    <desc>Created with Sketch.</desc>
    <g id="---↳-Final-–-SJ" stroke="none" stroke-width="1" fill="none" fill-rule="evenodd">
        <g id="1.0-Home" transform="translate(-1277.000000, -35.000000)" fill="#000000">
            <g id="Group-38">
                <g id="Group-42" transform="translate(0.000000, 23.807980)">
                    <path d="M1293,12.7308099 C1292.41149,12.9921996 1291.7788,13.1685159 1291.11461,13.2474199 C1291.79244,12.8415352 1292.31275,12.1986138 1292.55796,11.4319788 C1291.92365,11.8079904 1291.22146,12.0813943 1290.47348,12.228487 C1289.8749,11.5907609 1289.02168,11.1920198 1288.07752,11.1920198 C1286.26488,11.1920198 1284.7949,12.6616471 1284.7949,14.4738411 C1284.7949,14.7310097 1284.82413,14.9813594 1284.87999,15.2216431 C1282.15178,15.0849412 1279.73276,13.7786418 1278.11402,11.7927291 C1277.83146,12.2775178 1277.66939,12.8408858 1277.66939,13.4425693 C1277.66939,14.5813194 1278.24913,15.5856405 1279.12963,16.1743357 C1278.59178,16.1571262 1278.08544,16.0097089 1277.64308,15.7635804 C1277.64275,15.7772181 1277.64275,15.7911805 1277.64275,15.805143 C1277.64275,17.3949122 1278.77431,18.7213434 1280.27613,19.0229969 C1280.00071,19.0980044 1279.71068,19.1382682 1279.41122,19.1382682 C1279.19946,19.1382682 1278.99387,19.1178116 1278.79348,19.0791713 C1279.21115,20.382873 1280.42358,21.3319938 1281.85979,21.3582951 C1280.73635,22.2385779 1279.32093,22.7633056 1277.78274,22.7633056 C1277.51804,22.7633056 1277.25691,22.7477197 1277,22.7175218 C1278.45277,23.6487837 1280.17804,24.1920198 1282.03193,24.1920198 C1288.07005,24.1920198 1291.37152,19.1911955 1291.37152,14.8543986 C1291.37152,14.7125013 1291.36859,14.5706041 1291.36242,14.4296809 C1292.00355,13.967297 1292.56024,13.3889925 1293,12.7308099" id="Twitter"></path>
                </g>
            </g>
        </g>
    </g>
</svg>