<?xml version="1.0" encoding="UTF-8"?>
<svg width="16px" height="14px" viewBox="0 0 16 14" version="1.1" xmlns="http://www.w3.org/2000/svg" xmlns:xlink="http://www.w3.org/1999/xlink">
    <!-- Generator: Sketch 64 (93537) - https://sketch.com -->
    <title>Fill 8</title>
    <desc>Created with Sketch.</desc>
    <g id="---↳-Final-–-SJ" stroke="none" stroke-width="1" fill="none" fill-rule="evenodd">
        <g id="2.0-Resources-Library" transform="translate(-1277.000000, -34.000000)" fill="#FFFFFF">
            <g id="Group-42" transform="translate(0.000000, 24.000000)">
                <g id="Group-41" transform="translate(1277.000000, 8.192020)">
                    <path d="M16,3.53879009 C15.4114853,3.80017984 14.7787995,3.97649615 14.1146093,4.05540014 C14.7924406,3.64951544 15.3127499,3.00659407 15.5579644,2.23995904 C14.9236547,2.61597063 14.2214644,2.88937456 13.4734791,3.03646718 C12.874896,2.39874113 12.0216796,2 11.0775227,2 C9.2648844,2 7.79489678,3.46962734 7.79489678,5.28182136 C7.79489678,5.53898991 7.82412764,5.78933959 7.87999107,6.02962334 C5.1517772,5.89292137 2.7327609,4.58662204 1.11402066,2.60070936 C0.831455656,3.08549805 0.669386761,3.64886602 0.669386761,4.25054951 C0.669386761,5.38929963 1.24913221,6.39362074 2.12963076,6.98231592 C1.59178288,6.9651064 1.08543938,6.81768908 0.643078984,6.5715606 C0.642754197,6.58519832 0.642754197,6.59916076 0.642754197,6.61312319 C0.642754197,8.2028924 1.77431338,9.52932361 3.27613016,9.83097712 C3.00071047,9.90598461 2.71067535,9.94624838 2.4112214,9.94624838 C2.19946004,9.94624838 1.99386964,9.92579179 1.79347583,9.88715156 C2.21115239,11.1908532 3.42358362,12.139974 4.85979335,12.1662754 C3.73635386,13.0465581 2.32093052,13.5712858 0.782737552,13.5712858 C0.518035848,13.5712858 0.256906806,13.5556999 0,13.525502 C1.45277389,14.4567639 3.17804437,15 5.03193066,15 C11.0700526,15 14.3715161,9.99917574 14.3715161,5.66237886 C14.3715161,5.52048157 14.3685931,5.37858427 14.3624221,5.23766111 C15.0035524,4.77527725 15.5602379,4.19697272 16,3.53879009" id="Fill-8"></path>
                </g>
            </g>
        </g>
    </g>
</svg>