<?xml version="1.0" encoding="UTF-8"?>
<svg width="21px" height="15px" viewBox="0 0 21 15" version="1.1" xmlns="http://www.w3.org/2000/svg" xmlns:xlink="http://www.w3.org/1999/xlink">
    <!-- Generator: Sketch 64 (93537) - https://sketch.com -->
    <title>Fill 1</title>
    <desc>Created with Sketch.</desc>
    <g id="---↳-Final-–-SJ" stroke="none" stroke-width="1" fill="none" fill-rule="evenodd">
        <g id="2.0-Resources-Library" transform="translate(-1357.000000, -33.000000)" fill="#FFFFFF">
            <g id="Group-42" transform="translate(0.000000, 24.000000)">
                <g id="Group-41" transform="translate(1277.000000, 8.192020)">
                    <g id="Group-3" transform="translate(79.666667, 1.000000)">
                        <path d="M8.73121033,10.1698073 L8.73121033,4.00980726 L13.7330285,7.08980726 L8.73121033,10.1698073 Z M20.2493921,2.31707998 C20.0203012,1.46435271 19.3457558,0.789807255 18.4803012,0.560716346 C16.9148467,0.153443619 10.6530285,0.153443619 10.6530285,0.153443619 C10.6530285,0.153443619 4.50575578,0.127989073 2.94030124,0.535261801 C2.07484669,0.76435271 1.24757396,1.46435271 1.01848306,2.31707998 C0.598483055,3.86980726 0.636664874,7.08980726 0.636664874,7.08980726 C0.636664874,7.08980726 0.598483055,10.3098073 1.01848306,11.8625345 C1.24757396,12.7152618 2.08757396,13.4152618 2.94030124,13.6443527 C4.50575578,14.0643527 10.6530285,14.0261709 10.6530285,14.0261709 C10.6530285,14.0261709 16.8003012,14.0516254 18.3657558,13.6443527 C19.2312103,13.4152618 20.0330285,12.7152618 20.2621194,11.8625345 C20.6821194,10.3225345 20.6821194,7.08980726 20.6821194,7.08980726 C20.6821194,7.08980726 20.6693921,3.86980726 20.2493921,2.31707998 L20.2493921,2.31707998 Z" id="Fill-1"></path>
                    </g>
                </g>
            </g>
        </g>
    </g>
</svg>