<?xml version="1.0" encoding="UTF-8"?>
<svg width="27px" height="34px" viewBox="0 0 27 34" version="1.1" xmlns="http://www.w3.org/2000/svg" xmlns:xlink="http://www.w3.org/1999/xlink">
    <title>2</title>
    <g id="Page-1" stroke="none" stroke-width="1" fill="none" fill-rule="evenodd">
        <g id="20200618_Esoterica_5G-Opportunity_002" transform="translate(-425.000000, -1305.000000)" fill="#0E1726" fill-rule="nonzero">
            <g id="Group-16" transform="translate(56.000000, 1006.000000)">
                <g id="Group-15">
                    <path d="M387.150667,333 L387.150667,329.16 L373.950667,329.16 C382.542667,317.832 386.286667,315.336 386.286667,307.896 C386.286667,301.896 383.406667,299.16 377.406667,299.16 C371.742667,299.16 368.958667,302.76 369.342667,308.28 L373.854667,308.28 C373.806667,305.592 374.430667,302.856 377.742667,302.856 C380.574667,302.856 381.870667,304.632 381.870667,307.272 C381.870667,313.032 378.990667,315.528 369.246667,329.16 L369.246667,333 L387.150667,333 Z M395.412,333 L395.412,328.008 L390.9,328.008 L390.9,333 L395.412,333 Z" id="2."></path>
                </g>
            </g>
        </g>
    </g>
</svg>